Coordinates
version=1
nRows=17
nColumns=40
inDegrees=yes

Units are S.I. units (second, meters, Newtons, ...)
If the header above contains a line with 'inDegrees', this indicates whether rotational values are in degrees (yes) or radians (no).

endheader
time	pelvis_tilt	pelvis_list	pelvis_rotation	pelvis_tx	pelvis_ty	pelvis_tz	hip_flexion_r	hip_adduction_r	hip_rotation_r	knee_angle_r	knee_angle_r_beta	ankle_angle_r	subtalar_angle_r	mtp_angle_r	hip_flexion_l	hip_adduction_l	hip_rotation_l	knee_angle_l	knee_angle_l_beta	ankle_angle_l	subtalar_angle_l	mtp_angle_l	lumbar_extension	lumbar_bending	lumbar_rotation	arm_flex_r	arm_add_r	arm_rot_r	elbow_flex_r	pro_sup_r	wrist_flex_r	wrist_dev_r	arm_flex_l	arm_add_l	arm_rot_l	elbow_flex_l	pro_sup_l	wrist_flex_l	wrist_dev_l
      1.50000000	     -2.93695494	     -4.71783045	      2.56018585	     -0.23761154	      0.98845594	     -1.00419441	     14.94332848	     -8.77667154	      7.06481270	     81.59425403	      1.42408838	    -23.57684365	      0.00000000	      0.00000000	      2.06400342	     -0.91498764	      0.56026713	      2.70511236	      0.04721312	     -6.57701824	      0.00000000	      0.00000000	     -2.60473489	     -2.61765676	      8.65506455	     54.39138017	     -7.81507074	     27.68951226	     93.41545622	      4.47362859	      0.00000000	      0.00000000	     60.80455387	    -16.80869703	     32.26490045	     90.58236811	     73.08149383	      0.00000000	      0.00000000
      1.50500000	     -2.95652721	     -4.70395083	      2.57662750	     -0.23766120	      0.98843456	     -1.00416492	     14.94633659	     -8.78607165	      7.05386984	     81.55869855	      1.42346782	    -23.54131224	      0.00000000	      0.00000000	      2.10867967	     -0.89934635	      0.55045081	      2.72823346	      0.04761666	     -6.51500054	      0.00000000	      0.00000000	     -2.60644789	     -2.63471061	      8.62921487	     54.40933692	     -7.80375189	     27.70528141	     93.37869515	      4.74020989	      0.00000000	      0.00000000	     60.82743965	    -16.82238999	     32.32853351	     90.58753075	     72.03026495	      0.00000000	      0.00000000
      1.51000000	     -2.95261255	     -4.69846678	      2.50079109	     -0.23770623	      0.98842891	     -1.00402905	     14.97973807	     -8.74433524	      7.15893090	     81.62380241	      1.42460410	    -23.43257740	      0.00000000	      0.00000000	      2.10142329	     -0.89021301	      0.52562269	      2.74899822	      0.04797907	     -6.53025643	      0.00000000	      0.00000000	     -2.62845895	     -2.63722570	      8.69809683	     54.49436078	     -7.83333762	     27.70540444	     93.36440799	      4.34051196	      0.00000000	      0.00000000	     60.80805667	    -16.81582530	     32.21099565	     90.62367043	     73.28731603	      0.00000000	      0.00000000
      1.51500000	     -2.95666844	     -4.68063450	      2.47082429	     -0.23778430	      0.98846947	     -1.00394654	     14.99850412	     -8.75363984	      7.19130193	     81.58682973	      1.42395881	    -23.51415241	      0.00000000	      0.00000000	      2.13312026	     -0.87432244	      0.38137396	      2.78876260	      0.04867309	     -6.61001287	      0.00000000	      0.00000000	     -2.64166341	     -2.66148579	      8.73564449	     54.52341142	     -7.88162853	     27.76781138	     93.34722591	      4.48627052	      0.00000000	      0.00000000	     60.84698639	    -16.79880877	     32.27596132	     90.58966740	     72.59447195	      0.00000000	      0.00000000
      1.52000000	     -2.96307323	     -4.69825234	      2.47024383	     -0.23787844	      0.98845085	     -1.00386010	     15.01857321	     -8.72122276	      7.17754381	     81.60340694	      1.42424813	    -23.49515649	      0.00000000	      0.00000000	      2.15417706	     -0.89860144	      0.46825440	      2.80132935	      0.04889242	     -6.55712052	      0.00000000	      0.00000000	     -2.68249508	     -2.65102006	      8.72337904	     54.59258434	     -7.91245930	     27.78185232	     93.36990398	      4.47891767	      0.00000000	      0.00000000	     60.94004315	    -16.80207099	     32.23863582	     90.52772390	     74.04889570	      0.00000000	      0.00000000
      1.52500000	     -2.99451267	     -4.68851109	      2.44965516	     -0.23793635	      0.98840068	     -1.00377035	     15.05446310	     -8.71814326	      7.19614346	     81.59513564	      1.42410377	    -23.45013000	      0.00000000	      0.00000000	      2.19130548	     -0.89497585	      0.54148048	      2.80177252	      0.04890016	     -6.51063822	      0.00000000	      0.00000000	     -2.67070658	     -2.65939169	      8.74756249	     54.65345838	     -7.93309373	     27.80618946	     93.34623088	      4.63119619	      0.00000000	      0.00000000	     60.97341742	    -16.79138059	     32.35224682	     90.56675269	     72.39499408	      0.00000000	      0.00000000
      1.53000000	     -2.98612940	     -4.66868832	      2.41523901	     -0.23798330	      0.98841978	     -1.00370273	     15.06324996	     -8.72048920	      7.24824689	     81.61510657	      1.42445233	    -23.41483273	      0.00000000	      0.00000000	      2.23101971	     -0.86464079	      0.36525051	      2.89913866	      0.05059952	     -6.53326500	      0.00000000	      0.00000000	     -2.72057857	     -2.68715766	      8.77999733	     54.70124780	     -7.97504491	     27.81731647	     93.40030871	      4.31495882	      0.00000000	      0.00000000	     61.02276180	    -16.78982976	     32.33629339	     90.54866178	     72.91109843	      0.00000000	      0.00000000
      1.53500000	     -2.95161023	     -4.68634601	      2.42985262	     -0.23805963	      0.98843431	     -1.00371418	     15.02379429	     -8.71112827	      7.21510966	     81.59013172	      1.42401644	    -23.42413543	      0.00000000	      0.00000000	      2.21902152	     -0.87734125	      0.36238583	      2.93569732	      0.05123758	     -6.42635945	      0.00000000	      0.00000000	     -2.79138285	     -2.66156988	      8.77185581	     54.78716199	     -8.01200200	     27.83051128	     93.36984731	      4.30299458	      0.00000000	      0.00000000	     61.04715316	    -16.73171342	     32.29575709	     90.54578703	     72.52578532	      0.00000000	      0.00000000
      1.54000000	     -2.95407048	     -4.69156674	      2.44584680	     -0.23812715	      0.98843804	     -1.00370788	     15.00828172	     -8.69610398	      7.21232878	     81.57625878	      1.42377431	    -23.34584470	      0.00000000	      0.00000000	      2.18874424	     -0.88952597	      0.56766121	      2.83984558	      0.04956466	     -6.58628205	      0.00000000	      0.00000000	     -2.81340125	     -2.63997752	      8.72322699	     54.86870803	     -7.97456405	     27.89353615	     93.20341464	      4.95171092	      0.00000000	      0.00000000	     61.04068574	    -16.75496304	     32.39343332	     90.63433613	     70.60621119	      0.00000000	      0.00000000
      1.54500000	     -2.96364988	     -4.73787181	      2.46528012	     -0.23828519	      0.98839992	     -1.00369193	     15.03310167	     -8.64850990	      7.15847313	     81.57276233	      1.42371328	    -23.41762205	      0.00000000	      0.00000000	      2.31015225	     -0.93248934	      0.44922950	      3.02252918	      0.05275309	     -6.48540021	      0.00000000	      0.00000000	     -2.83602591	     -2.57880678	      8.68204139	     54.92827012	     -7.98314686	     27.92758569	     93.26824471	      4.39199468	      0.00000000	      0.00000000	     61.13841883	    -16.77049584	     32.26691965	     90.45444655	     73.21154141	      0.00000000	      0.00000000
      1.55000000	     -2.97526422	     -4.74214055	      2.44222085	     -0.23837757	      0.98840191	     -1.00358202	     15.04995816	     -8.65328989	      7.13769669	     81.54873891	      1.42329399	    -23.36959656	      0.00000000	      0.00000000	      2.28243702	     -0.95783409	      0.63185460	      2.91877164	      0.05094218	     -6.65122051	      0.00000000	      0.00000000	     -2.87200902	     -2.57223411	      8.70193065	     55.02667157	     -8.02604401	     27.98833472	     93.14824335	      5.08040559	      0.00000000	      0.00000000	     61.18045751	    -16.75685040	     32.28827879	     90.52865302	     71.50254349	      0.00000000	      0.00000000
      1.55500000	     -3.00371025	     -4.75304196	      2.44873649	     -0.23850772	      0.98834641	     -1.00356525	     15.08327831	     -8.62332311	      7.15003316	     81.54293329	      1.42319267	    -23.41312382	      0.00000000	      0.00000000	      2.44085934	     -0.96005560	      0.56729909	      3.17542053	      0.05542154	     -6.31794538	      0.00000000	      0.00000000	     -2.88484718	     -2.57262308	      8.66912445	     55.08365605	     -8.08283038	     28.05217424	     93.28435461	      4.40380503	      0.00000000	      0.00000000	     61.24319989	    -16.76740800	     32.33830481	     90.45419703	     72.20752546	      0.00000000	      0.00000000
      1.56000000	     -3.00022934	     -4.71267398	      2.43634485	     -0.23858255	      0.98839117	     -1.00356365	     15.08600116	     -8.66928981	      7.14854175	     81.54833803	      1.42328700	    -23.38147031	      0.00000000	      0.00000000	      2.61260691	     -0.91067698	      0.27758324	      3.52674365	      0.06155329	     -6.22689606	      0.00000000	      0.00000000	     -2.92932763	     -2.59938158	      8.66611333	     55.16344583	     -8.07445158	     28.08589282	     93.22738664	      4.33189799	      0.00000000	      0.00000000	     61.25418054	    -16.72745884	     32.18175528	     90.39165169	     73.63447450	      0.00000000	      0.00000000
      1.56500000	     -3.01190704	     -4.71748120	      2.41273690	     -0.23863086	      0.98838366	     -1.00350035	     15.10428038	     -8.65585535	      7.13516024	     81.52999439	      1.42296684	    -23.42774697	      0.00000000	      0.00000000	      2.62207693	     -0.92474718	      0.32188583	      3.51586140	      0.06136336	     -6.25337587	      0.00000000	      0.00000000	     -2.94518666	     -2.59744405	      8.71974734	     55.18841275	     -8.13977916	     28.06457372	     93.25008615	      4.46731842	      0.00000000	      0.00000000	     61.31304592	    -16.66961863	     32.29031310	     90.34800265	     72.56022987	      0.00000000	      0.00000000
      1.57000000	     -3.08868362	     -4.71629865	      2.36722011	     -0.23879407	      0.98829774	     -1.00332550	     15.22635127	     -8.63687404	      7.14638508	     81.57393523	      1.42373375	    -23.37493298	      0.00000000	      0.00000000	      2.75562322	     -0.94274298	      0.40102808	      3.58512993	      0.06257232	     -6.17042505	      0.00000000	      0.00000000	     -2.91091791	     -2.61601958	      8.76323933	     55.25745878	     -8.14598487	     28.05813511	     93.19891343	      4.41633627	      0.00000000	      0.00000000	     61.38473675	    -16.65373697	     32.39084171	     90.37267617	     71.51181958	      0.00000000	      0.00000000
      1.57500000	     -3.11015559	     -4.68357607	      2.34684217	     -0.23896491	      0.98825538	     -1.00324391	     15.26959743	     -8.66373462	      7.17149598	     81.58069887	      1.42385180	    -23.33647401	      0.00000000	      0.00000000	      2.69786158	     -0.91870139	      0.62092645	      3.39252707	      0.05921077	     -6.27778864	      0.00000000	      0.00000000	     -2.93163195	     -2.65709507	      8.79371257	     55.31196453	     -8.21983273	     28.13969739	     93.19615527	      4.31762722	      0.00000000	      0.00000000	     61.43878963	    -16.62405379	     32.29562894	     90.28903677	     73.18746513	      0.00000000	      0.00000000
      1.58000000	     -3.14048937	     -4.73934567	      2.35545459	     -0.23908471	      0.98825291	     -1.00313860	     15.28315581	     -8.57440175	      7.15469713	     81.51302894	      1.42267074	    -23.43165091	      0.00000000	      0.00000000	      2.80038182	     -0.98044974	      0.63773707	      3.52996979	      0.06160960	     -6.24900861	      0.00000000	      0.00000000	     -2.93951481	     -2.59765581	      8.77124914	     55.38601608	     -8.22187453	     28.14827670	     93.14468283	      4.50991253	      0.00000000	      0.00000000	     61.49577337	    -16.60473013	     32.23964627	     90.18641761	     74.10353051	      0.00000000	      0.00000000
